<mxfile host="app.diagrams.net" modified="2023-08-29T13:29:53.621Z" agent="Mozilla/5.0 (Macintosh; Intel Mac OS X 10_15_7) AppleWebKit/537.36 (KHTML, like Gecko) Chrome/116.0.0.0 Safari/537.36" etag="fs7MfKW3_-P37TuM-FdK" version="21.6.8" type="github">
  <diagram name="Page-1" id="dYGehK_KXUCNLGB5VTJx">
    <mxGraphModel dx="2650" dy="5130" grid="1" gridSize="10" guides="1" tooltips="1" connect="1" arrows="1" fold="1" page="1" pageScale="1" pageWidth="1920" pageHeight="1200" math="0" shadow="0">
      <root>
        <mxCell id="0" />
        <mxCell id="1" parent="0" />
      </root>
    </mxGraphModel>
  </diagram>
</mxfile>
